<svg xmlns="http://www.w3.org/2000/svg" version="1.1" xmlns:xlink="http://www.w3.org/1999/xlink" xmlns:svgjs="http://svgjs.dev/svgjs" width="400" height="400"><svg width="400" height="400" version="1.1" xmlns="http://www.w3.org/2000/svg">
 <path d="m222.51 259.84q-33.536 35.945-58.365 35.945-15.934 0-29.645-12.229v9.8202q0 17.046 5.1846 34.278 5.9292 19.084 5.9292 25.199 0 8.523-5.3726 14.082-5.3724 5.5587-13.34 5.5587-8.1526 0-12.97-6.4849-4.8148-6.4849-4.8148-15.564 0-6.6704 4.8148-24.087 5.5604-19.27 5.5604-37.428v-168.05h30.572v109.87q0 16.676 2.7772 24.458 2.9652 7.7821 10.191 12.785 7.4117 4.8176 16.676 4.8176 16.49 0 42.801-22.605v-129.33h30.757v128.77q0 16.305 3.3351 22.605 3.335 6.1145 11.303 6.1145 12.599 0 16.305-24.643h6.6702q-3.5229 42.06-35.575 42.06-13.896 0-23.161-9.2643-9.0787-9.4495-9.6347-26.681z"></path>
</svg><style>@media (prefers-color-scheme: light) { :root { filter: none; } }
@media (prefers-color-scheme: dark) { :root { filter: invert(100%); } }
</style></svg>